<?xml version="1.0" encoding="UTF-8" standalone="no"?>
<!-- Created with Inkscape (http://www.inkscape.org/) -->

<svg
   xmlns:dc="http://purl.org/dc/elements/1.1/"
   xmlns:cc="http://creativecommons.org/ns#"
   xmlns:rdf="http://www.w3.org/1999/02/22-rdf-syntax-ns#"
   xmlns:svg="http://www.w3.org/2000/svg"
   xmlns="http://www.w3.org/2000/svg"
   xmlns:sodipodi="http://sodipodi.sourceforge.net/DTD/sodipodi-0.dtd"
   xmlns:inkscape="http://www.inkscape.org/namespaces/inkscape"
   width="110"
   height="110"
   id="svg2"
   version="1.1"
   inkscape:version="0.48.5 r10040"
   sodipodi:docname="attitude.svg"
   viewBox="-55 -55 110 110">
  <defs
     id="defs4">
    <clipPath
       clipPathUnits="userSpaceOnUse"
       id="clipPath3341">
      <path
         sodipodi:type="arc"
         style="fill:#00ff00;fill-opacity:1;stroke:none"
         id="path3343"
         sodipodi:cx="55"
         sodipodi:cy="55"
         sodipodi:rx="50"
         sodipodi:ry="50"
         d="M 105,55 A 50,50 0 1 1 5,55 50,50 0 1 1 105,55 z"
         transform="translate(-55,-55)" />
    </clipPath>
  </defs>
  <sodipodi:namedview
     id="base"
     pagecolor="#ffffff"
     bordercolor="#666666"
     borderopacity="1.0"
     inkscape:pageopacity="0.0"
     inkscape:pageshadow="2"
     inkscape:zoom="5.6568542"
     inkscape:cx="116.6015"
     inkscape:cy="56.323079"
     inkscape:document-units="px"
     inkscape:current-layer="layer1"
     showgrid="true"
     showborder="false"
     showguides="true"
     inkscape:guide-bbox="true"
     inkscape:window-width="1920"
     inkscape:window-height="1029"
     inkscape:window-x="0"
     inkscape:window-y="27"
     inkscape:window-maximized="1"
     inkscape:snap-grids="true">
    <inkscape:grid
       type="xygrid"
       id="grid2985"
       units="px"
       empspacing="5"
       visible="true"
       enabled="true"
       snapvisiblegridlinesonly="true"
       spacingy="1px"
       spacingx="1px"
       originx="50px"
       originy="50px"
       dotted="false" />
  </sodipodi:namedview>
  <metadata
     id="metadata7">
    <rdf:RDF>
      <cc:Work
         rdf:about="">
        <dc:format>image/svg+xml</dc:format>
        <dc:type
           rdf:resource="http://purl.org/dc/dcmitype/StillImage" />
        <dc:title />
      </cc:Work>
    </rdf:RDF>
  </metadata>
  <g
     inkscape:label="Layer 1"
     inkscape:groupmode="layer"
     id="layer1">
    <g
       id="roll"
       clip-path="url(#clipPath3341)">
      <g
         id="pitch">
        <rect
           style="fill:#2eccfa;fill-opacity:1;stroke:none"
           id="rect3861"
           width="100"
           height="100"
           x="-50"
           y="-100" />
        <rect
           style="fill:#61380b;fill-opacity:1;stroke:none"
           id="rect3863"
           width="100"
           height="100"
           x="-50"
           y="0" />
        <rect
           style="fill:#ffffff;fill-opacity:1;stroke:none"
           id="rect3866"
           width="0.5"
           height="100"
           x="-0.25"
           y="-50"
           transform="matrix(0,-1,1,0,0,0)"
           inkscape:transform-center-x="1174.9999" />
        <rect
           inkscape:transform-center-x="352.49997"
           transform="matrix(0,-1,1,0,0,0)"
           y="-15"
           x="9.75"
           height="30"
           width="0.5"
           id="rect3872"
           style="fill:#ffffff;fill-opacity:1;stroke:none" />
        <rect
           style="fill:#ffffff;fill-opacity:1;stroke:none"
           id="rect3874"
           width="0.5"
           height="30"
           x="19.75"
           y="-15"
           transform="matrix(0,-1,1,0,0,0)"
           inkscape:transform-center-x="352.49997" />
        <rect
           inkscape:transform-center-x="352.49997"
           transform="matrix(0,-1,1,0,0,0)"
           y="-15"
           x="29.75"
           height="30"
           width="0.5"
           id="rect3876"
           style="fill:#ffffff;fill-opacity:1;stroke:none" />
        <rect
           style="fill:#ffffff;fill-opacity:1;stroke:none"
           id="rect3878"
           width="0.5"
           height="30"
           x="-20.25"
           y="-15"
           transform="matrix(0,-1,1,0,0,0)"
           inkscape:transform-center-x="352.49997" />
        <rect
           inkscape:transform-center-x="352.49997"
           transform="matrix(0,-1,1,0,0,0)"
           y="-15"
           x="-30.25"
           height="30"
           width="0.5"
           id="rect3880"
           style="fill:#ffffff;fill-opacity:1;stroke:none" />
        <rect
           inkscape:transform-center-x="352.49997"
           transform="matrix(0,-1,1,0,0,0)"
           y="-15"
           x="-10.25"
           height="30"
           width="0.5"
           id="rect3882"
           style="fill:#ffffff;fill-opacity:1;stroke:none" />
        <rect
           style="fill:#ffffff;fill-opacity:1;stroke:none"
           id="rect3884"
           width="0.5"
           height="20"
           x="4.75"
           y="-10"
           transform="matrix(0,-1,1,0,0,0)"
           inkscape:transform-center-x="234.99998" />
        <rect
           inkscape:transform-center-x="234.99998"
           transform="matrix(0,-1,1,0,0,0)"
           y="-10"
           x="14.75"
           height="20"
           width="0.5"
           id="rect3886"
           style="fill:#ffffff;fill-opacity:1;stroke:none" />
        <rect
           style="fill:#ffffff;fill-opacity:1;stroke:none"
           id="rect3888"
           width="0.5"
           height="20"
           x="24.75"
           y="-10"
           transform="matrix(0,-1,1,0,0,0)"
           inkscape:transform-center-x="234.99998" />
        <rect
           inkscape:transform-center-x="234.99998"
           transform="matrix(0,-1,1,0,0,0)"
           y="-10"
           x="-5.25"
           height="20"
           width="0.5"
           id="rect3890"
           style="fill:#ffffff;fill-opacity:1;stroke:none" />
        <rect
           style="fill:#ffffff;fill-opacity:1;stroke:none"
           id="rect3892"
           width="0.5"
           height="20"
           x="-15.25"
           y="-10"
           transform="matrix(0,-1,1,0,0,0)"
           inkscape:transform-center-x="234.99998" />
        <rect
           inkscape:transform-center-x="234.99998"
           transform="matrix(0,-1,1,0,0,0)"
           y="-10"
           x="-25.25"
           height="20"
           width="0.5"
           id="rect3894"
           style="fill:#ffffff;fill-opacity:1;stroke:none" />
        <text
           sodipodi:linespacing="125%"
           id="text3896"
           y="11.698608"
           x="15.550568"
           style="font-size:5px;font-style:normal;font-variant:normal;font-weight:normal;font-stretch:normal;line-height:125%;letter-spacing:0px;word-spacing:0px;fill:#ffffff;fill-opacity:1;stroke:none;font-family:Arial;-inkscape-font-specification:Arial"
           xml:space="preserve"><tspan
             y="11.698608"
             x="15.550568"
             id="tspan3898"
             sodipodi:role="line">10</tspan></text>
        <text
           xml:space="preserve"
           style="font-size:5px;font-style:normal;font-variant:normal;font-weight:normal;font-stretch:normal;line-height:125%;letter-spacing:0px;word-spacing:0px;fill:#ffffff;fill-opacity:1;stroke:none;font-family:Arial;-inkscape-font-specification:Arial"
           x="15.550568"
           y="-18.301392"
           id="text3920"
           sodipodi:linespacing="125%"><tspan
             sodipodi:role="line"
             id="tspan3922"
             x="15.550568"
             y="-18.301392">20</tspan></text>
        <text
           sodipodi:linespacing="125%"
           id="text3924"
           y="-28.301392"
           x="15.550568"
           style="font-size:5px;font-style:normal;font-variant:normal;font-weight:normal;font-stretch:normal;line-height:125%;letter-spacing:0px;word-spacing:0px;fill:#ffffff;fill-opacity:1;stroke:none;font-family:Arial;-inkscape-font-specification:Arial"
           xml:space="preserve"><tspan
             y="-28.301392"
             x="15.550568"
             id="tspan3926"
             sodipodi:role="line">30</tspan></text>
        <text
           xml:space="preserve"
           style="font-size:5px;font-style:normal;font-variant:normal;font-weight:normal;font-stretch:normal;line-height:125%;letter-spacing:0px;word-spacing:0px;fill:#ffffff;fill-opacity:1;stroke:none;font-family:Arial;-inkscape-font-specification:Arial"
           x="15.550568"
           y="21.698608"
           id="text3928"
           sodipodi:linespacing="125%"><tspan
             sodipodi:role="line"
             id="tspan3930"
             x="15.550568"
             y="21.698608">20</tspan></text>
        <text
           sodipodi:linespacing="125%"
           id="text3932"
           y="31.698608"
           x="15.550568"
           style="font-size:5px;font-style:normal;font-variant:normal;font-weight:normal;font-stretch:normal;line-height:125%;letter-spacing:0px;word-spacing:0px;fill:#ffffff;fill-opacity:1;stroke:none;font-family:Arial;-inkscape-font-specification:Arial"
           xml:space="preserve"><tspan
             y="31.698608"
             x="15.550568"
             id="tspan3934"
             sodipodi:role="line">30</tspan></text>
        <text
           sodipodi:linespacing="125%"
           id="text3936"
           y="-8.3013916"
           x="15.550568"
           style="font-size:5px;font-style:normal;font-variant:normal;font-weight:normal;font-stretch:normal;line-height:125%;letter-spacing:0px;word-spacing:0px;fill:#ffffff;fill-opacity:1;stroke:none;font-family:Arial;-inkscape-font-specification:Arial"
           xml:space="preserve"><tspan
             y="-8.3013916"
             x="15.550568"
             id="tspan3938"
             sodipodi:role="line">10</tspan></text>
        <text
           xml:space="preserve"
           style="font-size:5px;font-style:normal;font-variant:normal;font-weight:normal;font-stretch:normal;line-height:125%;letter-spacing:0px;word-spacing:0px;fill:#ffffff;fill-opacity:1;stroke:none;font-family:Arial;-inkscape-font-specification:Arial"
           x="-21.544434"
           y="-8.3013916"
           id="text3940"
           sodipodi:linespacing="125%"><tspan
             sodipodi:role="line"
             id="tspan3942"
             x="-21.544434"
             y="-8.3013916">10</tspan></text>
        <text
           sodipodi:linespacing="125%"
           id="text3956"
           y="11.698608"
           x="-21.544434"
           style="font-size:5px;font-style:normal;font-variant:normal;font-weight:normal;font-stretch:normal;line-height:125%;letter-spacing:0px;word-spacing:0px;fill:#ffffff;fill-opacity:1;stroke:none;font-family:Arial;-inkscape-font-specification:Arial"
           xml:space="preserve"><tspan
             y="11.698608"
             x="-21.544434"
             id="tspan3958"
             sodipodi:role="line">10</tspan></text>
        <text
           xml:space="preserve"
           style="font-size:5px;font-style:normal;font-variant:normal;font-weight:normal;font-stretch:normal;line-height:125%;letter-spacing:0px;word-spacing:0px;fill:#ffffff;fill-opacity:1;stroke:none;font-family:Arial;-inkscape-font-specification:Arial"
           x="-21.544434"
           y="21.698608"
           id="text3960"
           sodipodi:linespacing="125%"><tspan
             sodipodi:role="line"
             id="tspan3962"
             x="-21.544434"
             y="21.698608">20</tspan></text>
        <text
           sodipodi:linespacing="125%"
           id="text3964"
           y="31.698608"
           x="-21.544434"
           style="font-size:5px;font-style:normal;font-variant:normal;font-weight:normal;font-stretch:normal;line-height:125%;letter-spacing:0px;word-spacing:0px;fill:#ffffff;fill-opacity:1;stroke:none;font-family:Arial;-inkscape-font-specification:Arial"
           xml:space="preserve"><tspan
             y="31.698608"
             x="-21.544434"
             id="tspan3966"
             sodipodi:role="line">30</tspan></text>
        <text
           sodipodi:linespacing="125%"
           id="text3968"
           y="-18.301392"
           x="-21.544434"
           style="font-size:5px;font-style:normal;font-variant:normal;font-weight:normal;font-stretch:normal;line-height:125%;letter-spacing:0px;word-spacing:0px;fill:#ffffff;fill-opacity:1;stroke:none;font-family:Arial;-inkscape-font-specification:Arial"
           xml:space="preserve"><tspan
             y="-18.301392"
             x="-21.544434"
             id="tspan3970"
             sodipodi:role="line">20</tspan></text>
        <text
           xml:space="preserve"
           style="font-size:5px;font-style:normal;font-variant:normal;font-weight:normal;font-stretch:normal;line-height:125%;letter-spacing:0px;word-spacing:0px;fill:#ffffff;fill-opacity:1;stroke:none;font-family:Arial;-inkscape-font-specification:Arial"
           x="-21.544434"
           y="-28.301392"
           id="text3972"
           sodipodi:linespacing="125%"><tspan
             sodipodi:role="line"
             id="tspan3974"
             x="-21.544434"
             y="-28.301392">30</tspan></text>
      </g>
      <path
         sodipodi:type="star"
         style="fill:#ffffff;fill-opacity:1;stroke:none"
         id="path3769"
         sodipodi:sides="3"
         sodipodi:cx="-59"
         sodipodi:cy="60"
         sodipodi:r1="3.6055512"
         sodipodi:r2="1.8027756"
         sodipodi:arg1="1.0471976"
         sodipodi:arg2="2.0943952"
         inkscape:flatsided="false"
         inkscape:rounded="0"
         inkscape:randomized="0"
         d="M -57.197225,63.122499 -59.901388,61.561249 -62.605551,60 l 2.704163,-1.56125 2.704164,-1.561249 0,3.122499 z"
         transform="matrix(-1.6169678e-4,-0.93374506,0.83266641,-1.8132539e-4,-49.96923,-103.39675)"
         inkscape:transform-center-y="0.50505596" />
      <rect
         transform="matrix(0.93969262,-0.34202014,0.34202014,0.93969262,0,0)"
         y="-47.848526"
         x="-0.28910306"
         height="3"
         width="0.5"
         id="rect3832"
         style="fill:#ffffff;fill-opacity:1;stroke:none"
         inkscape:transform-center-y="-43.610196"
         inkscape:transform-center-x="16.138873" />
      <rect
         transform="matrix(0.98480775,-0.17364818,0.17364818,0.98480775,0,0)"
         y="-47.887447"
         x="-0.26598009"
         height="3"
         width="0.5"
         id="rect3830"
         style="fill:#ffffff;fill-opacity:1;stroke:none"
         inkscape:transform-center-y="-45.750151"
         inkscape:transform-center-x="8.3208343" />
      <rect
         inkscape:transform-center-x="-46.999996"
         transform="matrix(0,1,-1,0,0,0)"
         y="-48.999996"
         x="-0.17979249"
         height="4"
         width="0.5"
         id="rect3816"
         style="fill:#ffffff;fill-opacity:1;stroke:none" />
      <rect
         transform="matrix(0.98480775,0.17364818,-0.17364818,0.98480775,0,0)"
         y="-47.974239"
         x="-0.24160324"
         height="3"
         width="0.5"
         id="rect3828"
         style="fill:#ffffff;fill-opacity:1;stroke:none"
         inkscape:transform-center-y="-45.836941"
         inkscape:transform-center-x="-7.8284371" />
      <rect
         transform="matrix(0.93969262,0.34202014,-0.34202014,0.93969262,0,0)"
         y="-48.019543"
         x="-0.24104837"
         height="3"
         width="0.5"
         id="rect3826"
         style="fill:#ffffff;fill-opacity:1;stroke:none"
         inkscape:transform-center-y="-43.781215"
         inkscape:transform-center-x="-15.669033" />
      <rect
         inkscape:transform-center-x="-40.703191"
         transform="matrix(0.5,0.8660254,-0.8660254,0.5,0,0)"
         y="-48.964905"
         x="-0.18920913"
         height="4"
         width="0.5"
         id="rect3814"
         style="fill:#ffffff;fill-opacity:1;stroke:none"
         inkscape:transform-center-y="-23.500008" />
      <rect
         inkscape:transform-center-x="-23.500002"
         transform="matrix(0.8660254,0.5,-0.5,0.8660254,0,0)"
         y="-48.939209"
         x="-0.21489985"
         height="4"
         width="0.5"
         id="rect3812"
         style="fill:#ffffff;fill-opacity:1;stroke:none"
         inkscape:transform-center-y="-40.703202" />
      <rect
         inkscape:transform-center-x="23.500002"
         transform="matrix(0.8660254,-0.5,0.5,0.8660254,0,0)"
         y="-48.939209"
         x="-0.28510073"
         height="4"
         width="0.5"
         id="rect3810"
         style="fill:#ffffff;fill-opacity:1;stroke:none"
         inkscape:transform-center-y="-40.703202" />
      <rect
         inkscape:transform-center-x="46.999996"
         transform="matrix(0,-1,1,0,0,0)"
         y="-48.999996"
         x="-0.32020748"
         height="4"
         width="0.5"
         id="rect3808"
         style="fill:#ffffff;fill-opacity:1;stroke:none" />
      <rect
         inkscape:transform-center-x="40.703191"
         transform="matrix(0.5,-0.8660254,0.8660254,0.5,0,0)"
         y="-48.964901"
         x="-0.3107909"
         height="4"
         width="0.5"
         id="rect3804"
         style="fill:#ffffff;fill-opacity:1;stroke:none"
         inkscape:transform-center-y="-23.500008" />
      <path
         transform="matrix(1.1232449,0,0,1.1232449,0,-112.25429)"
         d="m 40,100 a 40,40 0 1 1 -80,0 40,40 0 1 1 80,0 z"
         sodipodi:ry="40"
         sodipodi:rx="40"
         sodipodi:cy="100"
         sodipodi:cx="0"
         id="path3985"
         style="fill:none;stroke:#ffffff;stroke-width:0.1;stroke-miterlimit:4;stroke-opacity:1;stroke-dasharray:none"
         sodipodi:type="arc" />
    </g>
    <g
       id="fixed">
      <path
         id="path3976"
         d="m 0,-55 c -30.37566,0 -55,24.62432 -55,55.00002 0,30.3756 24.62434,55 55,55 30.37566,0 55,-24.6244 55,-55 C 55,-30.37568 30.37566,-55 0,-55 z m 0,5.00002 c 27.61424,0 50,22.3857 50,50 0,27.6142 -22.38576,50 -50,50 -27.61424,0 -50,-22.3858 -50,-50 0,-27.6143 22.38576,-50 50,-50 z"
         style="fill:#1a1a1a;fill-opacity:1;stroke:none"
         inkscape:connector-curvature="0" />
      <path
         inkscape:transform-center-y="-0.52004486"
         transform="matrix(-1.6169678e-4,0.96137262,0.83266641,1.8669043e-4,-49.96923,16.02602)"
         d="M -57.197225,63.122499 -59.901388,61.561249 -62.605551,60 l 2.704163,-1.56125 2.704164,-1.561249 0,3.122499 z"
         inkscape:randomized="0"
         inkscape:rounded="0"
         inkscape:flatsided="false"
         sodipodi:arg2="2.0943952"
         sodipodi:arg1="1.0471976"
         sodipodi:r2="1.8027756"
         sodipodi:r1="3.6055512"
         sodipodi:cy="60"
         sodipodi:cx="-59"
         sodipodi:sides="3"
         id="path3778"
         style="fill:none;stroke:#ff6600;stroke-opacity:1"
         sodipodi:type="star" />
      <rect
         y="-0.5"
         x="-20"
         height="1"
         width="15"
         id="rect3990"
         style="fill:#ff6600;fill-opacity:1;stroke:none" />
      <rect
         style="fill:#ff6600;fill-opacity:1;stroke:none"
         id="rect3992"
         width="15"
         height="1"
         x="5"
         y="-0.5" />
      <path
         id="path3996"
         d="m 0,-4.99998 c -2.76142,0 -5,2.2386 -5,5 0,2.7614 2.23858,5 5,5 2.76142,0 5,-2.2386 5,-5 0,-2.7614 -2.23858,-5 -5,-5 z m 0,1 c 2.20914,0 4,1.7908 4,4 0,2.2091 -1.79086,4 -4,4 -2.20914,0 -4,-1.7909 -4,-4 0,-2.2092 1.79086,-4 4,-4 z"
         style="fill:#ff6600;fill-opacity:1;stroke:none"
         inkscape:connector-curvature="0" />
      <path
         transform="matrix(0.5,0,0,0.5,0,-49.99998)"
         d="m 1,100 c 0,0.55228 -0.44771525,1 -1,1 -0.55228475,0 -1,-0.44772 -1,-1 0,-0.552285 0.44771525,-1 1,-1 0.55228475,0 1,0.447715 1,1 z"
         sodipodi:ry="1"
         sodipodi:rx="1"
         sodipodi:cy="100"
         sodipodi:cx="0"
         id="path4001"
         style="fill:#ff6600;fill-opacity:1;stroke:none"
         sodipodi:type="arc" />
    </g>
  </g>
</svg>
