<?xml version="1.0" encoding="UTF-8" standalone="no"?>
<!-- Created with Inkscape (http://www.inkscape.org/) -->

<svg
   xmlns:dc="http://purl.org/dc/elements/1.1/"
   xmlns:cc="http://creativecommons.org/ns#"
   xmlns:rdf="http://www.w3.org/1999/02/22-rdf-syntax-ns#"
   xmlns:svg="http://www.w3.org/2000/svg"
   xmlns="http://www.w3.org/2000/svg"
   xmlns:sodipodi="http://sodipodi.sourceforge.net/DTD/sodipodi-0.dtd"
   xmlns:inkscape="http://www.inkscape.org/namespaces/inkscape"
   width="110"
   height="110"
   id="svg2987"
   version="1.1"
   inkscape:version="0.48.5 r10040"
   sodipodi:docname="distance.svg"
   viewBox="-55 -55 110 110">
  <defs
     id="defs2989" />
  <sodipodi:namedview
     id="base"
     pagecolor="#ffffff"
     bordercolor="#ffffff"
     borderopacity="0.0"
     inkscape:pageopacity="0.0"
     inkscape:pageshadow="0"
     inkscape:zoom="2.8"
     inkscape:cx="138.05523"
     inkscape:cy="39.382212"
     inkscape:document-units="px"
     inkscape:current-layer="layer1"
     showgrid="true"
     inkscape:window-width="1920"
     inkscape:window-height="1029"
     inkscape:window-x="0"
     inkscape:window-y="27"
     inkscape:window-maximized="1"
     inkscape:snap-grids="true">
    <inkscape:grid
       type="xygrid"
       id="grid2997"
       units="px"
       empspacing="5"
       visible="true"
       enabled="true"
       snapvisiblegridlinesonly="true"
       spacingx="1px"
       spacingy="1px" />
  </sodipodi:namedview>
  <metadata
     id="metadata2992">
    <rdf:RDF>
      <cc:Work
         rdf:about="">
        <dc:format>image/svg+xml</dc:format>
        <dc:type
           rdf:resource="http://purl.org/dc/dcmitype/StillImage" />
        <dc:title />
      </cc:Work>
    </rdf:RDF>
  </metadata>
  <g
     inkscape:label="Layer 1"
     inkscape:groupmode="layer"
     id="layer1">
    <path
       transform="matrix(0.13157895,0,0,0.13157895,-86.842106,-77.942392)"
       d="m 1040,592.36218 a 380,380 0 1 1 -760,0 380,380 0 1 1 760,0 z"
       sodipodi:ry="380"
       sodipodi:rx="380"
       sodipodi:cy="592.36218"
       sodipodi:cx="660"
       id="path3016"
       style="fill:#4d4d4d;fill-opacity:1;stroke:none"
       sodipodi:type="arc" />
    <path
       transform="matrix(0.11842105,0,0,0.11842105,-78.157899,-70.148156)"
       d="m 1040,592.36218 a 380,380 0 1 1 -760,0 380,380 0 1 1 760,0 z"
       sodipodi:ry="380"
       sodipodi:rx="380"
       sodipodi:cy="592.36218"
       sodipodi:cx="660"
       id="path3306"
       style="fill:#666666;fill-opacity:1;stroke:none"
       sodipodi:type="arc" />
    <path
       sodipodi:type="arc"
       style="fill:#4d4d4d;fill-opacity:1;stroke:none"
       id="path3304"
       sodipodi:cx="660"
       sodipodi:cy="592.36218"
       sodipodi:rx="380"
       sodipodi:ry="380"
       d="m 1040,592.36218 a 380,380 0 1 1 -760,0 380,380 0 1 1 760,0 z"
       transform="matrix(0.10526316,0,0,0.10526316,-69.47369,-62.353918)" />
    <path
       transform="matrix(0.09210526,0,0,0.09210526,-60.789477,-54.559677)"
       d="m 1040,592.36218 a 380,380 0 1 1 -760,0 380,380 0 1 1 760,0 z"
       sodipodi:ry="380"
       sodipodi:rx="380"
       sodipodi:cy="592.36218"
       sodipodi:cx="660"
       id="path3302"
       style="fill:#666666;fill-opacity:1;stroke:none"
       sodipodi:type="arc" />
    <path
       sodipodi:type="arc"
       style="fill:#4d4d4d;fill-opacity:1;stroke:none"
       id="path3300"
       sodipodi:cx="660"
       sodipodi:cy="592.36218"
       sodipodi:rx="380"
       sodipodi:ry="380"
       d="m 1040,592.36218 a 380,380 0 1 1 -760,0 380,380 0 1 1 760,0 z"
       transform="matrix(0.07894737,0,0,0.07894737,-52.105268,-46.765439)" />
    <path
       transform="matrix(0.06578947,0,0,0.06578947,-43.421055,-38.971198)"
       d="m 1040,592.36218 a 380,380 0 1 1 -760,0 380,380 0 1 1 760,0 z"
       sodipodi:ry="380"
       sodipodi:rx="380"
       sodipodi:cy="592.36218"
       sodipodi:cx="660"
       id="path3298"
       style="fill:#666666;fill-opacity:1;stroke:none"
       sodipodi:type="arc" />
    <path
       sodipodi:type="arc"
       style="fill:#4d4d4d;fill-opacity:1;stroke:none"
       id="path3277"
       sodipodi:cx="660"
       sodipodi:cy="592.36218"
       sodipodi:rx="380"
       sodipodi:ry="380"
       d="m 1040,592.36218 a 380,380 0 1 1 -760,0 380,380 0 1 1 760,0 z"
       transform="matrix(0.05263158,0,0,0.05263158,-34.736845,-31.176959)" />
    <path
       transform="matrix(0.03947368,0,0,0.03947368,-26.052632,-23.382717)"
       d="m 1040,592.36218 a 380,380 0 1 1 -760,0 380,380 0 1 1 760,0 z"
       sodipodi:ry="380"
       sodipodi:rx="380"
       sodipodi:cy="592.36218"
       sodipodi:cx="660"
       id="path3018"
       style="fill:#666666;fill-opacity:1;stroke:#ff7f2a;stroke-width:16.18800173;stroke-miterlimit:4;stroke-dasharray:none"
       sodipodi:type="arc" />
    <path
       inkscape:connector-curvature="0"
       style="fill:#ff6600;fill-opacity:1;stroke:none;stroke-width:2.1;stroke-miterlimit:4;stroke-dasharray:none"
       d="m -7.193878,-9.5918365 c -1.3243564,0 -2.3979591,1.0736028 -2.3979591,2.3979591 0,1.3243564 1.0736027,2.3979591 2.3979591,2.3979591 1.3243563,0 2.3979591,-1.0736027 2.3979591,-2.3979591 0,-1.3243563 -1.0736028,-2.3979591 -2.3979591,-2.3979591 z m 0,0.2397959 c 1.1919204,0 2.1581632,0.9662428 2.1581632,2.1581632 0,1.1919205 -0.9662428,2.1581632 -2.1581632,2.1581632 -1.1919205,0 -2.1581632,-0.9662427 -2.1581632,-2.1581632 0,-1.1919204 0.9662427,-2.1581632 2.1581632,-2.1581632 z"
       id="path3085" />
    <path
       id="path3093"
       d="m 7.1938766,-9.5918365 c -1.3243564,0 -2.3979591,1.0736028 -2.3979591,2.3979591 0,1.3243564 1.0736027,2.3979591 2.3979591,2.3979591 1.3243563,0 2.3979591,-1.0736027 2.3979591,-2.3979591 0,-1.3243563 -1.0736028,-2.3979591 -2.3979591,-2.3979591 z m 0,0.2397959 c 1.1919204,0 2.1581632,0.9662428 2.1581632,2.1581632 0,1.1919205 -0.9662428,2.1581632 -2.1581632,2.1581632 -1.1919205,0 -2.1581632,-0.9662427 -2.1581632,-2.1581632 0,-1.1919204 0.9662427,-2.1581632 2.1581632,-2.1581632 z"
       style="fill:#ff6600;fill-opacity:1;stroke:none"
       inkscape:connector-curvature="0" />
    <path
       inkscape:connector-curvature="0"
       style="fill:#ff6600;fill-opacity:1;stroke:none"
       d="m 7.1938766,4.7959181 c -1.3243564,0 -2.3979591,1.0736028 -2.3979591,2.3979591 0,1.3243564 1.0736027,2.3979591 2.3979591,2.3979591 1.3243563,0 2.3979591,-1.0736027 2.3979591,-2.3979591 0,-1.3243563 -1.0736028,-2.3979591 -2.3979591,-2.3979591 z m 0,0.2397959 c 1.1919204,0 2.1581632,0.9662428 2.1581632,2.1581632 0,1.1919205 -0.9662428,2.1581632 -2.1581632,2.1581632 -1.1919205,0 -2.1581632,-0.9662427 -2.1581632,-2.1581632 0,-1.1919204 0.9662427,-2.1581632 2.1581632,-2.1581632 z"
       id="path3095" />
    <path
       id="path3097"
       d="m -7.193878,4.7959181 c -1.3243564,0 -2.3979591,1.0736028 -2.3979591,2.3979591 0,1.3243564 1.0736027,2.3979591 2.3979591,2.3979591 1.3243563,0 2.3979591,-1.0736027 2.3979591,-2.3979591 0,-1.3243563 -1.0736028,-2.3979591 -2.3979591,-2.3979591 z m 0,0.2397959 c 1.1919204,0 2.1581632,0.9662428 2.1581632,2.1581632 0,1.1919205 -0.9662428,2.1581632 -2.1581632,2.1581632 -1.1919205,0 -2.1581632,-0.9662427 -2.1581632,-2.1581632 0,-1.1919204 0.9662427,-2.1581632 2.1581632,-2.1581632 z"
       style="fill:#ff6600;fill-opacity:1;stroke:none"
       inkscape:connector-curvature="0" />
    <path
       style="fill:none;stroke:#ff6600;stroke-width:0.23979589;stroke-linecap:butt;stroke-linejoin:miter;stroke-miterlimit:4;stroke-opacity:1;stroke-dasharray:none"
       d="M -5.5431508,5.54315 5.5431493,-5.5431502"
       id="path3099"
       inkscape:connector-curvature="0" />
    <path
       style="fill:none;stroke:#ff6600;stroke-width:0.23979589;stroke-linecap:butt;stroke-linejoin:miter;stroke-miterlimit:4;stroke-opacity:1;stroke-dasharray:none"
       d="M -5.5431508,-5.5431502 5.5431493,5.54315"
       id="path3101"
       inkscape:connector-curvature="0" />
    <path
       sodipodi:type="star"
       style="fill:none;stroke:#ff6600;stroke-width:0.79236584;stroke-miterlimit:4;stroke-opacity:1;stroke-dasharray:none"
       id="path3778"
       sodipodi:sides="3"
       sodipodi:cx="-59"
       sodipodi:cy="60"
       sodipodi:r1="3.6055512"
       sodipodi:r2="1.8027756"
       sodipodi:arg1="1.0471976"
       sodipodi:arg2="2.0943952"
       inkscape:flatsided="false"
       inkscape:rounded="0"
       inkscape:randomized="0"
       d="M -57.197225,63.122499 -59.901388,61.561249 -62.605551,60 l 2.704163,-1.56125 2.704164,-1.561249 0,3.122499 z"
       transform="matrix(-7.7548453e-5,0.46106644,0.39934,8.9535203e-5,-23.962476,16.598427)"
       inkscape:transform-center-y="-0.52004486" />
    <path
       style="fill:#00ff00;stroke:#00ff00;stroke-width:1;stroke-linecap:butt;stroke-linejoin:miter;stroke-miterlimit:4;stroke-opacity:1;stroke-dasharray:none;stroke-dashoffset:0"
       d="m -50,-18.75 c 0.297619,0.05952 0.595238,0.119048 0.892857,0.178571 0.119048,0 0.239715,-0.01957 0.357143,0 0.242084,0.04035 0.471329,0.143864 0.714286,0.178572 0.176776,0.02525 0.359572,-0.02936 0.535714,0 0.18567,0.03095 0.353104,0.132919 0.535714,0.178571 0.294451,0.07361 0.598407,0.104959 0.892857,0.178572 0.182611,0.04565 0.351966,0.137738 0.535715,0.178571 0.353447,0.07854 0.717981,0.100028 1.071428,0.178572 0.183749,0.04083 0.357143,0.119047 0.535715,0.178571 0.357142,0.119048 0.709451,0.253721 1.071428,0.357143 0.05723,0.01635 0.119646,-0.0084 0.178572,0 0.35843,0.0512 0.711156,0.142544 1.071428,0.178571 0.236914,0.02369 0.478584,-0.03367 0.714286,0 0.186339,0.02662 0.357143,0.119048 0.535714,0.178572 0.416667,0 0.835401,-0.04146 1.25,0 0.187297,0.01873 0.349375,0.151951 0.535714,0.178571 0.235703,0.03367 0.476191,0 0.714286,0 0.238095,0 0.476191,0 0.714286,0 0.357143,0 0.714286,0 1.071428,0 0.238096,0 0.478584,0.03367 0.714286,0 0.186339,-0.02662 0.350045,-0.147626 0.535714,-0.178571 0.176142,-0.02936 0.366307,0.05647 0.535715,0 0.05647,-0.01882 -0.04953,-0.145554 0,-0.178572 1.080402,-0.720268 0.07149,0.258884 0.892857,-0.357143 0.134687,-0.101015 0.225677,-0.25197 0.357143,-0.357142 0.515632,-0.412506 0.509601,-0.235217 0.892857,-0.714286 0.13407,-0.167587 0.228373,-0.364022 0.357143,-0.535714 0.05051,-0.06734 0.124681,-0.113904 0.178571,-0.178572 0.101988,-0.122385 1.297569,-1.556459 1.428572,-1.785714 0.09339,-0.16343 0.09439,-0.367356 0.178571,-0.535714 0.09598,-0.191959 0.246724,-0.351683 0.357143,-0.535715 0.06848,-0.114131 0.119047,-0.238095 0.178571,-0.357143 0.178572,-0.357142 0.387419,-0.700689 0.535715,-1.071428 0.09115,-0.22787 0.108049,-0.479213 0.178571,-0.714286 0.108175,-0.360585 0.248967,-0.710844 0.357143,-1.071428 0.07052,-0.235073 0.100962,-0.481458 0.178571,-0.714286 0.377385,-1.132155 0.284942,-0.550868 0.535715,-1.428572 0.07629,-0.267001 0.214425,-0.964564 0.357142,-1.25 0.09598,-0.191958 0.261164,-0.343755 0.357143,-0.535714 1.003096,-2.006191 -0.08249,-0.03762 0.535715,-1.428571 0.216227,-0.486511 0.516558,-0.934253 0.714285,-1.428572 0.06991,-0.174768 0.09439,-0.367355 0.178572,-0.535714 0.09598,-0.191959 0.261163,-0.343756 0.357143,-0.535714 0.08418,-0.168359 0.112479,-0.359469 0.178571,-0.535715 0.03323,-0.470719 0.368814,-0.832749 0.535714,-1.25 0.06991,-0.174768 0.09439,-0.367355 0.178572,-0.535714 0.136569,-0.273139 0.55982,-0.863837 0.714285,-1.25 0.475265,-1.188161 -0.186741,0.132664 0.535715,-1.071428 0.136958,-0.228264 0.197423,-0.501327 0.357143,-0.714286 0.101015,-0.134687 0.263754,-0.21706 0.357142,-0.357143 0.219781,-0.32967 0.315935,-0.741758 0.535715,-1.071429 0.111406,-0.167109 0.599921,-0.599921 0.714285,-0.714285 0.416667,-0.416667 0.833334,-0.833334 1.25,-1.25 0.13948,-0.13948 0.432989,-0.381625 0.535715,-0.535715 0.07383,-0.110745 0.09871,-0.250663 0.178571,-0.357142 0.101015,-0.134687 0.25197,-0.225677 0.357143,-0.357143 0.13407,-0.167587 0.223073,-0.368128 0.357143,-0.535715 0.105173,-0.131466 0.256127,-0.222455 0.357143,-0.357142 0.07986,-0.10648 0.09871,-0.250664 0.178571,-0.357143 0.101015,-0.134687 0.256128,-0.222456 0.357143,-0.357143 0.422735,-0.563647 -0.134199,-0.222945 0.535714,-0.892857 0.649933,-0.649933 0.125471,0.189849 0.535715,-0.357143 0.128769,-0.171693 0.228373,-0.364022 0.357142,-0.535715 0.112156,-0.14954 0.46265,-0.389585 0.535715,-0.535714 0.178994,-0.357989 -0.295226,-0.0018 0.178571,-0.357143 1.770799,-1.328099 -0.35353,0.295211 0.892857,-0.535714 0.07004,-0.04669 0.106389,-0.135261 0.178572,-0.178571 0.228263,-0.136958 0.47619,-0.238096 0.714285,-0.357143 0.119048,-0.05952 0.230874,-0.136482 0.357143,-0.178572 0.05647,-0.01882 0.125332,0.02662 0.178572,0 0.191958,-0.09598 0.343756,-0.261163 0.535714,-0.357143 0.05324,-0.02662 0.120825,0.01444 0.178571,0 0.182611,-0.04565 0.351139,-0.141656 0.535715,-0.178571 0.116736,-0.02335 0.241649,0.02887 0.357143,0 0.129125,-0.03228 0.238095,-0.119048 0.357142,-0.178571 0.297619,-0.05952 0.592395,-0.135649 0.892858,-0.178572 0.117851,-0.01684 0.238095,0 0.357142,0 0.238096,0 0.476191,0 0.714286,0 0.119048,0 0.24165,0.02887 0.357143,0 0.129125,-0.03228 0.225855,-0.15669 0.357143,-0.178571 0.234856,-0.03914 0.47943,0.03914 0.714286,0 0.131288,-0.02188 0.225854,-0.15669 0.357142,-0.178572 0.347491,-0.05792 0.723939,0.05792 1.071429,0 0.242084,-0.04035 0.471329,-0.143863 0.714286,-0.178571 0.296962,-0.04242 0.918734,0 1.25,0 0.05952,0 0.136481,0.04209 0.178571,0 0.04209,-0.04209 -0.05324,-0.151952 0,-0.178572 C -4.000663,-50.231812 -30,-44 -4,-53 c 0.1124987,-0.03894 -33.119048,14 -33,14"
       id="path3192"
       inkscape:connector-curvature="0"
       sodipodi:nodetypes="ccccsscscsccsscsssssscccssscssssssssscssscsscccssssssssssssssssssscsccsscccccsscsssssssssc" />
    <path
       style="fill:#00ff00;stroke:#00ff00;stroke-width:1;stroke-linecap:butt;stroke-linejoin:miter;stroke-miterlimit:4;stroke-opacity:1;stroke-dasharray:none;stroke-dashoffset:0"
       d="m 37,-39 c 0.339238,0.286323 -23.076942,-8.950563 -22.714286,-8.678572 0.202031,0.151523 0.357143,0.357143 0.535715,0.535715 0.297619,0.297619 0.595238,0.595238 0.892857,0.892857 0.807636,0.807636 -0.15776,-0.184053 1.071428,1.25 0.109567,0.127827 0.238096,0.238095 0.357143,0.357143 0.297619,0.357143 0.607439,0.704462 0.892857,1.071428 0.131762,0.169408 0.223074,0.368128 0.357143,0.535715 0.342822,0.428527 0.728607,0.821473 1.071429,1.25 0.134069,0.167587 0.228373,0.364021 0.357143,0.535714 1.046559,1.395412 0.37132,0.376992 1.25,1.607143 0.124743,0.17464 0.225381,0.366306 0.357142,0.535714 0.285419,0.366967 0.607439,0.704462 0.892858,1.071429 0.395284,0.508223 0.676143,1.098919 1.071428,1.607143 0.155044,0.199341 0.38893,0.330215 0.535714,0.535714 0.154725,0.216614 0.200573,0.499001 0.357143,0.714286 3.190943,4.387545 -0.216344,-0.493646 1.607143,1.785714 0.319871,0.399838 0.572986,0.850161 0.892857,1.25 0.315519,0.394398 0.735874,0.69393 1.071429,1.071428 0.30886,0.347468 0.583997,0.723961 0.892857,1.071429 0.503332,0.566248 1.100326,1.044012 1.607143,1.607143 0.199097,0.221218 0.345183,0.485648 0.535714,0.714286 0.295565,0.354677 1.305583,1.163907 1.428572,1.25 0.218078,0.152654 0.489704,0.214227 0.714285,0.357142 0.416667,0.297619 0.833334,0.595238 1.25,0.892858 0.119048,0.05952 0.243011,0.110092 0.357143,0.178571 0.481522,0.288913 0.954816,0.591377 1.428572,0.892857 0.431074,0.27432 0.74827,0.547043 1.25,0.714286 0.112938,0.03765 0.244204,-0.03765 0.357142,0 0.252539,0.08418 0.467127,0.258279 0.714286,0.357143 0.154363,0.06175 0.377611,-0.0527 0.535714,0 0.12627,0.04209 0.228018,0.14629 0.357143,0.178571 0.115493,0.02887 0.238096,0 0.357143,0 0.05952,0 0.125332,-0.02662 0.178572,0 0.07529,0.03765 0.103279,0.140925 0.178571,0.178572 0.05324,0.02662 0.120204,-0.01167 0.178571,0 0.240657,0.04813 0.473629,0.13044 0.714286,0.178571 0.05837,0.01167 0.122102,-0.01882 0.178572,0 0.126269,0.04209 0.228017,0.14629 0.357142,0.178571 0.115494,0.02887 0.244205,-0.03765 0.357143,0 0.07986,0.02662 0.103279,0.140926 0.178572,0.178572 0.05324,0.02662 0.120825,-0.01444 0.178571,0 0.182611,0.04565 0.357143,0.119047 0.535714,0.178571 0.178572,0.05952 0.357143,0.119048 0.535715,0.178572 0.05952,0 0.120825,-0.01444 0.178571,0 0.182611,0.04565 0.350045,0.147626 0.535714,0.178571 0.176142,0.02936 0.360611,-0.03502 0.535715,0 0.130514,0.0261 0.230874,0.136482 0.357143,0.178572 0.232831,0.07761 0.473631,0.13044 0.714281,0.178571 0.0584,0.01167 0.11905,0 0.17858,0 0.23809,0.05952 0.47362,0.13044 0.71428,0.178571 0.0584,0.01167 0.12533,-0.02662 0.17857,0 0.84325,0.421624 -1.08993,-0.09391 0.71429,0.357143 0.17857,0.04464 0.35714,-0.08928 0.53571,0 0.47619,0.238095 -0.53571,0.178572 0.17857,0.178572"
       id="path3194"
       inkscape:connector-curvature="0"
       sodipodi:nodetypes="csssscsssssssssssssssssccsscccscscscccccsccccccscccsccc" />
    <path
       style="fill:#00ff00;stroke:#00ff00;stroke-width:1;stroke-linecap:butt;stroke-linejoin:miter;stroke-miterlimit:4;stroke-opacity:1;stroke-dasharray:none;stroke-dashoffset:0"
       d="m -34,40 c 0.124317,0.736668 -15.393362,-18.327802 -15,-18 0.258674,0.215561 -0.0057,-14.540561 0.25,-14.321429 0.162949,0.139671 0.372766,0.217473 0.535714,0.357143 0.255655,0.219133 0.455612,0.498725 0.714286,0.714286 0.10225,0.08521 0.250663,0.09871 0.357143,0.178571 0.134687,0.101016 0.225677,0.25197 0.357143,0.357143 0.167587,0.13407 0.357143,0.238095 0.535714,0.357143 0.238095,0.238095 0.458631,0.495153 0.714286,0.714286 0.325897,0.279341 0.732613,0.450762 1.071428,0.714286 0.366967,0.285418 0.704462,0.607438 1.071429,0.892857 0.169408,0.131761 0.372765,0.217472 0.535714,0.357143 0.255655,0.219132 0.46088,0.492555 0.714286,0.714285 0.223981,0.195984 0.47619,0.357143 0.714286,0.535715 0.647689,0.485766 1.332085,0.922811 1.964285,1.428571 0.197199,0.157759 0.338515,0.377955 0.535715,0.535714 0.377561,0.752881 1.358186,0.817072 1.964285,1.25 0.205499,0.146785 0.338515,0.377955 0.535715,0.535715 2.577478,2.061982 0.214504,0.136502 1.964285,1.25 0.270637,0.172223 1.30764,0.963155 1.785715,1.25 0.924277,0.554566 1.079703,0.567134 1.785714,1.071428 0.293483,0.209631 0.893906,0.698624 1.25,0.892857 0.467389,0.25494 0.961182,0.459346 1.428571,0.714286 0.188411,0.102769 0.351683,0.246724 0.535715,0.357143 2.423219,1.453932 0.298187,0.162648 1.964285,1.071428 0.421299,0.2298 0.828701,0.484487 1.25,0.714286 1.09127,0.595238 0.446429,0.14881 1.785715,0.892857 0.375216,0.208454 0.714285,0.476191 1.071428,0.714286 0.357143,0.238095 0.722148,0.464799 1.071429,0.714286 0.0685,0.04893 0.119047,0.119047 0.178571,0.178571 0.238095,0.238095 0.476191,0.476191 0.714286,0.714286 0.528844,0.528844 1.117762,1.04785 1.607143,1.607143 0.141325,0.161515 0.225381,0.366306 0.357143,0.535714 0.285418,0.366967 0.590307,0.718453 0.892857,1.071429 0.05478,0.06391 0.129643,0.110071 0.178571,0.178571 0.249486,0.349281 0.476191,0.714286 0.714286,1.071429 0.119047,0.178571 0.250663,0.349375 0.357143,0.535714 0.132071,0.231125 0.220185,0.486022 0.357143,0.714286 0.220838,0.368063 0.522327,0.687511 0.714285,1.071428 0.05324,0.10648 -0.03765,0.244205 0,0.357143 0.143353,0.430057 0.380796,0.823973 0.535715,1.25 0.677306,1.862593 -0.246537,-0.259198 0.357142,1.25 0.168359,0.420897 0.380796,0.823973 0.535715,1.25 0.167743,0.461294 0.222297,0.956611 0.357143,1.428571 0.05171,0.180989 0.12686,0.354726 0.178571,0.535715 0.06742,0.23598 0.111149,0.478305 0.178571,0.714285 0.205257,0.718399 0.478746,1.436238 0.714286,2.142858 0.05952,0.178571 0.137739,0.351965 0.178572,0.535714 0.07854,0.353447 0.100027,0.717981 0.178571,1.071427 0.277668,1.24951 0.136631,-0.335525 0.357143,1.42857 0.02215,0.1772 -0.03502,0.36061 0,0.53572 0.05221,0.26103 0.29258,0.45603 0.357143,0.71428 0.03314,0.13255 -0.05481,0.65948 0,0.71429 0.04209,0.0421 0.136481,-0.0421 0.178571,0 0.04209,0.0421 0,0.11905 0,0.17857 0,0.0595 0.05952,0.17857 0,0.17857 -0.05952,0 0,-0.23809 0,-0.17857 0,1.0119 -0.119047,0.0595 0.178572,0.35714 0.04209,0.0421 0,0.11905 0,0.17857 0,0.0595 0,0.11905 0,0.17858 0,0.11904 0,0.23809 0,0.35714 0,0.0595 0.05952,0.17857 0,0.17857 -0.05952,0 0,-0.11905 0,-0.17857"
       id="path3196"
       inkscape:connector-curvature="0"
       sodipodi:nodetypes="csssssscssssssscsssssssssssscsssssssssscsssscscssscccsssscssssc" />
    <path
       style="fill:#1a1a1a;fill-opacity:1;stroke:none"
       d="M 55 0 C 24.624339 1.8947806e-14 0 24.624339 0 55 C 9.4739031e-15 85.375661 24.624339 110 55 110 C 85.375661 110 110 85.375661 110 55 C 110 24.624339 85.375661 -7.1054274e-15 55 0 z M 55 5 C 82.614238 5 105 27.385762 105 55 C 105 82.614238 82.614238 105 55 105 C 27.385762 105 5 82.614238 5 55 C 5 27.385762 27.385762 5 55 5 z "
       transform="translate(-55,-55)"
       id="path2999" />
  </g>
</svg>
