<?xml version="1.0" encoding="UTF-8" standalone="no"?>
<!-- Created with Inkscape (http://www.inkscape.org/) -->

<svg
   xmlns:dc="http://purl.org/dc/elements/1.1/"
   xmlns:cc="http://creativecommons.org/ns#"
   xmlns:rdf="http://www.w3.org/1999/02/22-rdf-syntax-ns#"
   xmlns:svg="http://www.w3.org/2000/svg"
   xmlns="http://www.w3.org/2000/svg"
   xmlns:sodipodi="http://sodipodi.sourceforge.net/DTD/sodipodi-0.dtd"
   xmlns:inkscape="http://www.inkscape.org/namespaces/inkscape"
   width="110"
   height="110"
   id="svg2987"
   version="1.1"
   inkscape:version="0.48.5 r10040"
   sodipodi:docname="heading.svg"
   viewBox="-55 -55 110 110">
  <defs
     id="defs2989" />
  <sodipodi:namedview
     id="base"
     pagecolor="#ffffff"
     bordercolor="#ffffff"
     borderopacity="0.0"
     inkscape:pageopacity="0.0"
     inkscape:pageshadow="0"
     inkscape:zoom="2.8"
     inkscape:cx="80.925724"
     inkscape:cy="121.2003"
     inkscape:document-units="px"
     inkscape:current-layer="layer1"
     showgrid="true"
     inkscape:window-width="1920"
     inkscape:window-height="1029"
     inkscape:window-x="0"
     inkscape:window-y="27"
     inkscape:window-maximized="1"
     inkscape:snap-grids="false">
    <inkscape:grid
       type="xygrid"
       id="grid2997"
       units="px"
       empspacing="5"
       visible="true"
       enabled="true"
       snapvisiblegridlinesonly="true"
       spacingx="1px"
       spacingy="1px" />
  </sodipodi:namedview>
  <metadata
     id="metadata2992">
    <rdf:RDF>
      <cc:Work
         rdf:about="">
        <dc:format>image/svg+xml</dc:format>
        <dc:type
           rdf:resource="http://purl.org/dc/dcmitype/StillImage" />
        <dc:title />
      </cc:Work>
    </rdf:RDF>
  </metadata>
  <g
     inkscape:label="Layer 1"
     inkscape:groupmode="layer"
     id="layer1">
    <path
       sodipodi:type="arc"
       style="fill:#1a1a1a;fill-opacity:1;stroke:none"
       id="path2999"
       sodipodi:cx="660"
       sodipodi:cy="592.36218"
       sodipodi:rx="380"
       sodipodi:ry="380"
       d="m 1040,592.36218 a 380,380 0 1 1 -760,0 380,380 0 1 1 760,0 z"
       transform="matrix(0.14473684,0,0,0.14473684,-95.526315,-85.73663)" />
    <g
       id="heading">
      <path
         sodipodi:type="arc"
         style="fill:#333333;fill-opacity:1;stroke:none"
         id="path3016"
         sodipodi:cx="660"
         sodipodi:cy="592.36218"
         sodipodi:rx="380"
         sodipodi:ry="380"
         d="m 1040,592.36218 a 380,380 0 1 1 -760,0 380,380 0 1 1 760,0 z"
         transform="matrix(0.13157895,0,0,0.13157895,-86.842106,-77.942392)" />
      <text
         inkscape:transform-center-x="0.13476562"
         inkscape:transform-center-y="-45.863281"
         sodipodi:linespacing="125%"
         id="text3025"
         y="-43"
         x="0.025250001"
         style="font-size:8px;font-style:normal;font-variant:normal;font-weight:normal;font-stretch:normal;text-align:center;line-height:125%;letter-spacing:0px;word-spacing:0px;text-anchor:middle;fill:#ffffff;fill-opacity:1;stroke:none;font-family:Arial;-inkscape-font-specification:Arial"
         xml:space="preserve"><tspan
           y="-43"
           x="0.025250001"
           id="tspan3027"
           sodipodi:role="line">N</tspan></text>
      <rect
         style="fill:#ffffff;fill-opacity:1;stroke:none"
         id="rect3089"
         width="0.5"
         height="7"
         x="-0.25"
         y="-42"
         inkscape:transform-center-x="0.25"
         inkscape:transform-center-y="-38.5" />
      <rect
         inkscape:transform-center-x="-3.2247624"
         transform="matrix(0.9961947,0.08715574,-0.08715574,0.9961947,0,0)"
         inkscape:transform-center-y="-36.859204"
         y="-39"
         x="-0.25"
         height="4"
         width="0.5"
         id="rect4329"
         style="fill:#ffffff;fill-opacity:1;stroke:none" />
      <rect
         inkscape:transform-center-x="-6.6854549"
         transform="matrix(0.98480775,0.17364818,-0.17364818,0.98480775,0,0)"
         style="fill:#ffffff;fill-opacity:1;stroke:none"
         id="rect4401"
         width="0.5"
         height="7"
         x="-0.25"
         y="-42"
         inkscape:transform-center-y="-37.915098" />
      <rect
         inkscape:transform-center-y="-36.178166"
         y="-42"
         x="-0.25000006"
         height="7"
         width="0.5"
         id="rect4403"
         style="fill:#ffffff;fill-opacity:1;stroke:none"
         transform="matrix(0.93969262,0.34202015,-0.34202015,0.93969262,0,0)"
         inkscape:transform-center-x="-13.167776" />
      <rect
         inkscape:transform-center-x="-19.250001"
         transform="matrix(0.8660254,0.50000001,-0.50000001,0.8660254,0,0)"
         style="fill:#ffffff;fill-opacity:1;stroke:none"
         id="rect4405"
         width="0.5"
         height="7"
         x="-0.25000003"
         y="-42"
         inkscape:transform-center-y="-33.341978" />
      <rect
         inkscape:transform-center-y="-29.492711"
         y="-42"
         x="-0.24999996"
         height="7"
         width="0.5"
         id="rect4407"
         style="fill:#ffffff;fill-opacity:1;stroke:none"
         transform="matrix(0.76604444,0.64278762,-0.64278762,0.76604444,0,0)"
         inkscape:transform-center-x="-24.747324" />
      <rect
         inkscape:transform-center-x="-29.492712"
         transform="matrix(0.6427876,0.76604445,-0.76604445,0.6427876,0,0)"
         style="fill:#ffffff;fill-opacity:1;stroke:none"
         id="rect4409"
         width="0.5"
         height="7"
         x="-0.24999987"
         y="-42"
         inkscape:transform-center-y="-24.747323" />
      <rect
         inkscape:transform-center-y="-19.25"
         y="-42"
         x="-0.24999973"
         height="7"
         width="0.5"
         id="rect4411"
         style="fill:#ffffff;fill-opacity:1;stroke:none"
         transform="matrix(0.49999999,0.86602541,-0.86602541,0.49999999,0,0)"
         inkscape:transform-center-x="-33.341979" />
      <rect
         inkscape:transform-center-x="-36.178167"
         transform="matrix(0.34202013,0.93969262,-0.93969262,0.34202013,0,0)"
         style="fill:#ffffff;fill-opacity:1;stroke:none"
         id="rect4413"
         width="0.5"
         height="7"
         x="-0.2499996"
         y="-42"
         inkscape:transform-center-y="-13.167775" />
      <rect
         inkscape:transform-center-y="-6.6854543"
         y="-42"
         x="-0.24999942"
         height="7"
         width="0.5"
         id="rect4415"
         style="fill:#ffffff;fill-opacity:1;stroke:none"
         transform="matrix(0.17364817,0.98480776,-0.98480776,0.17364817,0,0)"
         inkscape:transform-center-x="-37.9151" />
      <rect
         inkscape:transform-center-x="-38.500001"
         transform="matrix(0,1,-1,0,0,0)"
         style="fill:#ffffff;fill-opacity:1;stroke:none"
         id="rect4417"
         width="0.5"
         height="7"
         x="-0.24999921"
         y="-42" />
      <rect
         inkscape:transform-center-y="6.6854551"
         y="-42"
         x="-0.24999905"
         height="7"
         width="0.5"
         id="rect4419"
         style="fill:#ffffff;fill-opacity:1;stroke:none"
         transform="matrix(-0.17364818,0.98480775,-0.98480775,-0.17364818,0,0)"
         inkscape:transform-center-x="-37.915099" />
      <rect
         inkscape:transform-center-x="-36.178166"
         transform="matrix(-0.34202015,0.93969262,-0.93969262,-0.34202015,0,0)"
         style="fill:#ffffff;fill-opacity:1;stroke:none"
         id="rect4421"
         width="0.5"
         height="7"
         x="-0.24999894"
         y="-42"
         inkscape:transform-center-y="13.167776" />
      <rect
         inkscape:transform-center-y="19.250001"
         y="-42"
         x="-0.24999893"
         height="7"
         width="0.5"
         id="rect4423"
         style="fill:#ffffff;fill-opacity:1;stroke:none"
         transform="matrix(-0.50000001,0.8660254,-0.8660254,-0.50000001,0,0)"
         inkscape:transform-center-x="-33.341978" />
      <rect
         inkscape:transform-center-x="-29.492711"
         transform="matrix(-0.64278762,0.76604444,-0.76604444,-0.64278762,0,0)"
         style="fill:#ffffff;fill-opacity:1;stroke:none"
         id="rect4425"
         width="0.5"
         height="7"
         x="-0.24999887"
         y="-42"
         inkscape:transform-center-y="24.747324" />
      <rect
         inkscape:transform-center-y="29.492712"
         y="-42"
         x="-0.24999881"
         height="7"
         width="0.5"
         id="rect4427"
         style="fill:#ffffff;fill-opacity:1;stroke:none"
         transform="matrix(-0.76604445,0.6427876,-0.6427876,-0.76604445,0,0)"
         inkscape:transform-center-x="-24.747322" />
      <rect
         inkscape:transform-center-x="-19.249999"
         transform="matrix(-0.86602541,0.49999999,-0.49999999,-0.86602541,0,0)"
         style="fill:#ffffff;fill-opacity:1;stroke:none"
         id="rect4429"
         width="0.5"
         height="7"
         x="-0.24999879"
         y="-42"
         inkscape:transform-center-y="33.341979" />
      <rect
         inkscape:transform-center-y="36.178166"
         y="-42"
         x="-0.24999875"
         height="7"
         width="0.5"
         id="rect4431"
         style="fill:#ffffff;fill-opacity:1;stroke:none"
         transform="matrix(-0.93969262,0.34202013,-0.34202013,-0.93969262,0,0)"
         inkscape:transform-center-x="-13.167774" />
      <rect
         inkscape:transform-center-x="-6.6854535"
         transform="matrix(-0.98480776,0.17364817,-0.17364817,-0.98480776,0,0)"
         style="fill:#ffffff;fill-opacity:1;stroke:none"
         id="rect4433"
         width="0.5"
         height="7"
         x="-0.24999879"
         y="-42"
         inkscape:transform-center-y="37.915099" />
      <rect
         inkscape:transform-center-y="38.5"
         y="-42"
         x="-0.24999879"
         height="7"
         width="0.5"
         id="rect4435"
         style="fill:#ffffff;fill-opacity:1;stroke:none"
         transform="scale(-1,-1)" />
      <rect
         inkscape:transform-center-x="6.6854549"
         transform="matrix(-0.98480775,-0.17364818,0.17364818,-0.98480775,0,0)"
         style="fill:#ffffff;fill-opacity:1;stroke:none"
         id="rect4437"
         width="0.5"
         height="7"
         x="-0.24999881"
         y="-42"
         inkscape:transform-center-y="37.915098" />
      <rect
         inkscape:transform-center-y="36.178165"
         y="-42"
         x="-0.2499989"
         height="7"
         width="0.5"
         id="rect4439"
         style="fill:#ffffff;fill-opacity:1;stroke:none"
         transform="matrix(-0.93969262,-0.34202015,0.34202015,-0.93969262,0,0)"
         inkscape:transform-center-x="13.167776" />
      <rect
         inkscape:transform-center-x="19.25"
         transform="matrix(-0.8660254,-0.50000001,0.50000001,-0.8660254,0,0)"
         style="fill:#ffffff;fill-opacity:1;stroke:none"
         id="rect4441"
         width="0.5"
         height="7"
         x="-0.24999903"
         y="-42"
         inkscape:transform-center-y="33.341977" />
      <rect
         inkscape:transform-center-y="29.49271"
         y="-42"
         x="-0.24999921"
         height="7"
         width="0.5"
         id="rect4443"
         style="fill:#ffffff;fill-opacity:1;stroke:none"
         transform="matrix(-0.76604444,-0.64278762,0.64278762,-0.76604444,0,0)"
         inkscape:transform-center-x="24.747323" />
      <rect
         inkscape:transform-center-x="29.492711"
         transform="matrix(-0.6427876,-0.76604445,0.76604445,-0.6427876,0,0)"
         style="fill:#ffffff;fill-opacity:1;stroke:none"
         id="rect4445"
         width="0.5"
         height="7"
         x="-0.24999939"
         y="-42"
         inkscape:transform-center-y="24.747322" />
      <rect
         inkscape:transform-center-y="19.249999"
         y="-42"
         x="-0.24999951"
         height="7"
         width="0.5"
         id="rect4447"
         style="fill:#ffffff;fill-opacity:1;stroke:none"
         transform="matrix(-0.49999999,-0.86602541,0.86602541,-0.49999999,0,0)"
         inkscape:transform-center-x="33.341978" />
      <rect
         inkscape:transform-center-x="36.178165"
         transform="matrix(-0.34202013,-0.93969262,0.93969262,-0.34202013,0,0)"
         style="fill:#ffffff;fill-opacity:1;stroke:none"
         id="rect4449"
         width="0.5"
         height="7"
         x="-0.24999961"
         y="-42"
         inkscape:transform-center-y="13.167774" />
      <rect
         inkscape:transform-center-y="6.6854537"
         y="-42"
         x="-0.24999981"
         height="7"
         width="0.5"
         id="rect4451"
         style="fill:#ffffff;fill-opacity:1;stroke:none"
         transform="matrix(-0.17364817,-0.98480776,0.98480776,-0.17364817,0,0)"
         inkscape:transform-center-x="37.915098" />
      <rect
         inkscape:transform-center-x="38.499999"
         transform="matrix(0,-1,1,0,0,0)"
         style="fill:#ffffff;fill-opacity:1;stroke:none"
         id="rect4453"
         width="0.5"
         height="7"
         x="-0.24999996"
         y="-42" />
      <rect
         inkscape:transform-center-y="-6.6854548"
         y="-42"
         x="-0.25000012"
         height="7"
         width="0.5"
         id="rect4455"
         style="fill:#ffffff;fill-opacity:1;stroke:none"
         transform="matrix(0.17364818,-0.98480775,0.98480775,0.17364818,0,0)"
         inkscape:transform-center-x="37.915097" />
      <rect
         inkscape:transform-center-x="36.178165"
         transform="matrix(0.34202015,-0.93969262,0.93969262,0.34202015,0,0)"
         style="fill:#ffffff;fill-opacity:1;stroke:none"
         id="rect4457"
         width="0.5"
         height="7"
         x="-0.25000036"
         y="-42"
         inkscape:transform-center-y="-13.167775" />
      <rect
         inkscape:transform-center-y="-19.249999"
         y="-42"
         x="-0.25000054"
         height="7"
         width="0.5"
         id="rect4459"
         style="fill:#ffffff;fill-opacity:1;stroke:none"
         transform="matrix(0.50000001,-0.8660254,0.8660254,0.50000001,0,0)"
         inkscape:transform-center-x="33.341977" />
      <rect
         inkscape:transform-center-x="29.49271"
         transform="matrix(0.64278762,-0.76604444,0.76604444,0.64278762,0,0)"
         style="fill:#ffffff;fill-opacity:1;stroke:none"
         id="rect4461"
         width="0.5"
         height="7"
         x="-0.2500008"
         y="-42"
         inkscape:transform-center-y="-24.747322" />
      <rect
         inkscape:transform-center-y="-29.49271"
         y="-42"
         x="-0.25000107"
         height="7"
         width="0.5"
         id="rect4463"
         style="fill:#ffffff;fill-opacity:1;stroke:none"
         transform="matrix(0.76604445,-0.6427876,0.6427876,0.76604445,0,0)"
         inkscape:transform-center-x="24.747322" />
      <rect
         inkscape:transform-center-x="19.249999"
         transform="matrix(0.86602541,-0.49999999,0.49999999,0.86602541,0,0)"
         style="fill:#ffffff;fill-opacity:1;stroke:none"
         id="rect4465"
         width="0.5"
         height="7"
         x="-0.25000131"
         y="-42"
         inkscape:transform-center-y="-33.341977" />
      <rect
         inkscape:transform-center-y="-36.178165"
         y="-42"
         x="-0.25000155"
         height="7"
         width="0.5"
         id="rect4467"
         style="fill:#ffffff;fill-opacity:1;stroke:none"
         transform="matrix(0.93969262,-0.34202013,0.34202013,0.93969262,0,0)"
         inkscape:transform-center-x="13.167775" />
      <rect
         inkscape:transform-center-x="6.6854547"
         transform="matrix(0.98480776,-0.17364817,0.17364817,0.98480776,0,0)"
         style="fill:#ffffff;fill-opacity:1;stroke:none"
         id="rect4469"
         width="0.5"
         height="7"
         x="-0.25000167"
         y="-42"
         inkscape:transform-center-y="-37.915098" />
      <rect
         style="fill:#ffffff;fill-opacity:1;stroke:none"
         id="rect4473"
         width="0.5"
         height="4"
         x="-0.24999999"
         y="-39"
         inkscape:transform-center-y="-35.739256"
         transform="matrix(0.96592583,0.25881904,-0.25881904,0.96592583,0,0)"
         inkscape:transform-center-x="-9.5763045" />
      <rect
         inkscape:transform-center-x="-15.636876"
         transform="matrix(0.90630779,0.42261826,-0.42261826,0.90630779,0,0)"
         inkscape:transform-center-y="-33.533388"
         y="-39"
         x="-0.24999994"
         height="4"
         width="0.5"
         id="rect4475"
         style="fill:#ffffff;fill-opacity:1;stroke:none" />
      <rect
         style="fill:#ffffff;fill-opacity:1;stroke:none"
         id="rect4477"
         width="0.5"
         height="4"
         x="-0.24999994"
         y="-39"
         inkscape:transform-center-y="-30.308626"
         transform="matrix(0.81915205,0.57357643,-0.57357643,0.81915205,0,0)"
         inkscape:transform-center-x="-21.222328" />
      <rect
         inkscape:transform-center-x="-26.162951"
         transform="matrix(0.70710679,0.70710678,-0.70710678,0.70710679,0,0)"
         inkscape:transform-center-y="-26.162951"
         y="-39"
         x="-0.24999991"
         height="4"
         width="0.5"
         id="rect4479"
         style="fill:#ffffff;fill-opacity:1;stroke:none" />
      <rect
         style="fill:#ffffff;fill-opacity:1;stroke:none"
         id="rect4481"
         width="0.5"
         height="4"
         x="-0.24999993"
         y="-39"
         inkscape:transform-center-y="-21.222328"
         transform="matrix(0.57357644,0.81915204,-0.81915204,0.57357644,0,0)"
         inkscape:transform-center-x="-30.308626" />
      <rect
         inkscape:transform-center-x="-33.533388"
         transform="matrix(0.42261827,0.90630778,-0.90630778,0.42261827,0,0)"
         inkscape:transform-center-y="-15.636876"
         y="-39"
         x="-0.24999987"
         height="4"
         width="0.5"
         id="rect4483"
         style="fill:#ffffff;fill-opacity:1;stroke:none" />
      <rect
         style="fill:#ffffff;fill-opacity:1;stroke:none"
         id="rect4485"
         width="0.5"
         height="4"
         x="-0.24999985"
         y="-39"
         inkscape:transform-center-y="-9.5763052"
         transform="matrix(0.25881906,0.96592582,-0.96592582,0.25881906,0,0)"
         inkscape:transform-center-x="-35.739255" />
      <rect
         inkscape:transform-center-x="-36.859204"
         transform="matrix(0.08715576,0.9961947,-0.9961947,0.08715576,0,0)"
         inkscape:transform-center-y="-3.2247632"
         y="-39"
         x="-0.24999991"
         height="4"
         width="0.5"
         id="rect4487"
         style="fill:#ffffff;fill-opacity:1;stroke:none" />
      <rect
         style="fill:#ffffff;fill-opacity:1;stroke:none"
         id="rect4489"
         width="0.5"
         height="4"
         x="-0.2499999"
         y="-39"
         inkscape:transform-center-y="3.2247619"
         transform="matrix(-0.08715573,0.9961947,-0.9961947,-0.08715573,0,0)"
         inkscape:transform-center-x="-36.859204" />
      <rect
         inkscape:transform-center-x="-35.739256"
         transform="matrix(-0.25881903,0.96592583,-0.96592583,-0.25881903,0,0)"
         inkscape:transform-center-y="9.576304"
         y="-39"
         x="-0.24999988"
         height="4"
         width="0.5"
         id="rect4491"
         style="fill:#ffffff;fill-opacity:1;stroke:none" />
      <rect
         style="fill:#ffffff;fill-opacity:1;stroke:none"
         id="rect4493"
         width="0.5"
         height="4"
         x="-0.24999984"
         y="-39"
         inkscape:transform-center-y="15.636875"
         transform="matrix(-0.42261825,0.90630779,-0.90630779,-0.42261825,0,0)"
         inkscape:transform-center-x="-33.533388" />
      <rect
         inkscape:transform-center-x="-30.308626"
         transform="matrix(-0.57357643,0.81915205,-0.81915205,-0.57357643,0,0)"
         inkscape:transform-center-y="21.222328"
         y="-39"
         x="-0.2499999"
         height="4"
         width="0.5"
         id="rect4495"
         style="fill:#ffffff;fill-opacity:1;stroke:none" />
      <rect
         style="fill:#ffffff;fill-opacity:1;stroke:none"
         id="rect4497"
         width="0.5"
         height="4"
         x="-0.24999987"
         y="-39"
         inkscape:transform-center-y="26.162951"
         transform="matrix(-0.70710678,0.70710679,-0.70710679,-0.70710678,0,0)"
         inkscape:transform-center-x="-26.162951" />
      <rect
         inkscape:transform-center-x="-21.222328"
         transform="matrix(-0.81915204,0.57357644,-0.57357644,-0.81915204,0,0)"
         inkscape:transform-center-y="30.308626"
         y="-39"
         x="-0.24999988"
         height="4"
         width="0.5"
         id="rect4499"
         style="fill:#ffffff;fill-opacity:1;stroke:none" />
      <rect
         style="fill:#ffffff;fill-opacity:1;stroke:none"
         id="rect4501"
         width="0.5"
         height="4"
         x="-0.24999982"
         y="-39"
         inkscape:transform-center-y="33.533388"
         transform="matrix(-0.90630778,0.42261827,-0.42261827,-0.90630778,0,0)"
         inkscape:transform-center-x="-15.636876" />
      <rect
         inkscape:transform-center-x="-9.5763052"
         transform="matrix(-0.96592582,0.25881906,-0.25881906,-0.96592582,0,0)"
         inkscape:transform-center-y="35.739255"
         y="-39"
         x="-0.24999981"
         height="4"
         width="0.5"
         id="rect4503"
         style="fill:#ffffff;fill-opacity:1;stroke:none" />
      <rect
         style="fill:#ffffff;fill-opacity:1;stroke:none"
         id="rect4505"
         width="0.5"
         height="4"
         x="-0.24999987"
         y="-39"
         inkscape:transform-center-y="36.859204"
         transform="matrix(-0.9961947,0.08715576,-0.08715576,-0.9961947,0,0)"
         inkscape:transform-center-x="-3.2247632" />
      <rect
         inkscape:transform-center-x="3.2247619"
         transform="matrix(-0.9961947,-0.08715573,0.08715573,-0.9961947,0,0)"
         inkscape:transform-center-y="36.859204"
         y="-39"
         x="-0.24999985"
         height="4"
         width="0.5"
         id="rect4507"
         style="fill:#ffffff;fill-opacity:1;stroke:none" />
      <rect
         style="fill:#ffffff;fill-opacity:1;stroke:none"
         id="rect4509"
         width="0.5"
         height="4"
         x="-0.24999984"
         y="-39"
         inkscape:transform-center-y="35.739256"
         transform="matrix(-0.96592583,-0.25881903,0.25881903,-0.96592583,0,0)"
         inkscape:transform-center-x="9.576304" />
      <rect
         inkscape:transform-center-x="15.636875"
         transform="matrix(-0.90630779,-0.42261825,0.42261825,-0.90630779,0,0)"
         inkscape:transform-center-y="33.533388"
         y="-39"
         x="-0.24999979"
         height="4"
         width="0.5"
         id="rect4511"
         style="fill:#ffffff;fill-opacity:1;stroke:none" />
      <rect
         style="fill:#ffffff;fill-opacity:1;stroke:none"
         id="rect4513"
         width="0.5"
         height="4"
         x="-0.24999985"
         y="-39"
         inkscape:transform-center-y="30.308626"
         transform="matrix(-0.81915205,-0.57357643,0.57357643,-0.81915205,0,0)"
         inkscape:transform-center-x="21.222328" />
      <rect
         inkscape:transform-center-x="26.162951"
         transform="matrix(-0.70710679,-0.70710678,0.70710678,-0.70710679,0,0)"
         inkscape:transform-center-y="26.162951"
         y="-39"
         x="-0.24999982"
         height="4"
         width="0.5"
         id="rect4515"
         style="fill:#ffffff;fill-opacity:1;stroke:none" />
      <rect
         style="fill:#ffffff;fill-opacity:1;stroke:none"
         id="rect4517"
         width="0.5"
         height="4"
         x="-0.24999984"
         y="-39"
         inkscape:transform-center-y="21.222328"
         transform="matrix(-0.57357644,-0.81915204,0.81915204,-0.57357644,0,0)"
         inkscape:transform-center-x="30.308626" />
      <rect
         inkscape:transform-center-x="33.533388"
         transform="matrix(-0.42261827,-0.90630778,0.90630778,-0.42261827,0,0)"
         inkscape:transform-center-y="15.636876"
         y="-39"
         x="-0.24999979"
         height="4"
         width="0.5"
         id="rect4519"
         style="fill:#ffffff;fill-opacity:1;stroke:none" />
      <rect
         style="fill:#ffffff;fill-opacity:1;stroke:none"
         id="rect4521"
         width="0.5"
         height="4"
         x="-0.24999978"
         y="-39"
         inkscape:transform-center-y="9.5763052"
         transform="matrix(-0.25881906,-0.96592582,0.96592582,-0.25881906,0,0)"
         inkscape:transform-center-x="35.739255" />
      <rect
         inkscape:transform-center-x="36.859204"
         transform="matrix(-0.08715576,-0.9961947,0.9961947,-0.08715576,0,0)"
         inkscape:transform-center-y="3.2247632"
         y="-39"
         x="-0.24999984"
         height="4"
         width="0.5"
         id="rect4523"
         style="fill:#ffffff;fill-opacity:1;stroke:none" />
      <rect
         style="fill:#ffffff;fill-opacity:1;stroke:none"
         id="rect4525"
         width="0.5"
         height="4"
         x="-0.24999982"
         y="-39"
         inkscape:transform-center-y="-3.2247619"
         transform="matrix(0.08715573,-0.9961947,0.9961947,0.08715573,0,0)"
         inkscape:transform-center-x="36.859204" />
      <rect
         inkscape:transform-center-x="35.739256"
         transform="matrix(0.25881903,-0.96592583,0.96592583,0.25881903,0,0)"
         inkscape:transform-center-y="-9.576304"
         y="-39"
         x="-0.24999981"
         height="4"
         width="0.5"
         id="rect4527"
         style="fill:#ffffff;fill-opacity:1;stroke:none" />
      <rect
         style="fill:#ffffff;fill-opacity:1;stroke:none"
         id="rect4529"
         width="0.5"
         height="4"
         x="-0.24999976"
         y="-39"
         inkscape:transform-center-y="-15.636875"
         transform="matrix(0.42261825,-0.90630779,0.90630779,0.42261825,0,0)"
         inkscape:transform-center-x="33.533388" />
      <rect
         inkscape:transform-center-x="30.308626"
         transform="matrix(0.57357643,-0.81915205,0.81915205,0.57357643,0,0)"
         inkscape:transform-center-y="-21.222328"
         y="-39"
         x="-0.24999982"
         height="4"
         width="0.5"
         id="rect4531"
         style="fill:#ffffff;fill-opacity:1;stroke:none" />
      <rect
         style="fill:#ffffff;fill-opacity:1;stroke:none"
         id="rect4533"
         width="0.5"
         height="4"
         x="-0.24999979"
         y="-39"
         inkscape:transform-center-y="-26.162951"
         transform="matrix(0.70710678,-0.70710679,0.70710679,0.70710678,0,0)"
         inkscape:transform-center-x="26.162951" />
      <rect
         inkscape:transform-center-x="21.222328"
         transform="matrix(0.81915204,-0.57357644,0.57357644,0.81915204,0,0)"
         inkscape:transform-center-y="-30.308626"
         y="-39"
         x="-0.24999981"
         height="4"
         width="0.5"
         id="rect4535"
         style="fill:#ffffff;fill-opacity:1;stroke:none" />
      <rect
         style="fill:#ffffff;fill-opacity:1;stroke:none"
         id="rect4537"
         width="0.5"
         height="4"
         x="-0.24999976"
         y="-39"
         inkscape:transform-center-y="-33.533388"
         transform="matrix(0.90630778,-0.42261827,0.42261827,0.90630778,0,0)"
         inkscape:transform-center-x="15.636876" />
      <rect
         inkscape:transform-center-x="9.5763052"
         transform="matrix(0.96592582,-0.25881906,0.25881906,0.96592582,0,0)"
         inkscape:transform-center-y="-35.739255"
         y="-39"
         x="-0.24999975"
         height="4"
         width="0.5"
         id="rect4539"
         style="fill:#ffffff;fill-opacity:1;stroke:none" />
      <rect
         style="fill:#ffffff;fill-opacity:1;stroke:none"
         id="rect4541"
         width="0.5"
         height="4"
         x="-0.24999981"
         y="-39"
         inkscape:transform-center-y="-36.859204"
         transform="matrix(0.9961947,-0.08715576,0.08715576,0.9961947,0,0)"
         inkscape:transform-center-x="3.2247632" />
      <text
         transform="matrix(0.8660254,0.5,-0.5,0.8660254,0,0)"
         xml:space="preserve"
         style="font-size:8px;font-style:normal;font-variant:normal;font-weight:normal;font-stretch:normal;text-align:center;line-height:125%;letter-spacing:0px;word-spacing:0px;text-anchor:middle;fill:#ffffff;fill-opacity:1;stroke:none;font-family:Arial;-inkscape-font-specification:Arial"
         x="0.0072135464"
         y="-43.067314"
         id="text4549"
         sodipodi:linespacing="125%"
         inkscape:transform-center-y="-39.786151"
         inkscape:transform-center-x="-22.814931"><tspan
           sodipodi:role="line"
           id="tspan4551"
           x="0.0072135464"
           y="-43.067314">3</tspan></text>
      <text
         inkscape:transform-center-x="-39.651384"
         inkscape:transform-center-y="-23.048351"
         sodipodi:linespacing="125%"
         id="text4553"
         y="-43.116589"
         x="-0.042062506"
         style="font-size:8px;font-style:normal;font-variant:normal;font-weight:normal;font-stretch:normal;text-align:center;line-height:125%;letter-spacing:0px;word-spacing:0px;text-anchor:middle;fill:#ffffff;fill-opacity:1;stroke:none;font-family:Arial;-inkscape-font-specification:Arial"
         xml:space="preserve"
         transform="matrix(0.5,0.8660254,-0.8660254,0.5,0,0)"><tspan
           y="-43.116589"
           x="-0.042062506"
           id="tspan4555"
           sodipodi:role="line">6</tspan></text>
      <text
         transform="matrix(0,1,-1,0,0,0)"
         xml:space="preserve"
         style="font-size:8px;font-style:normal;font-variant:normal;font-weight:normal;font-stretch:normal;text-align:center;line-height:125%;letter-spacing:0px;word-spacing:0px;text-anchor:middle;fill:#ffffff;fill-opacity:1;stroke:none;font-family:Arial;-inkscape-font-specification:Arial"
         x="-0.10937481"
         y="-43.134624"
         id="text4557"
         sodipodi:linespacing="125%"
         inkscape:transform-center-y="-0.13476539"
         inkscape:transform-center-x="-45.863281"><tspan
           sodipodi:role="line"
           id="tspan4559"
           x="-0.10937481"
           y="-43.134624">E</tspan></text>
      <text
         inkscape:transform-center-x="-39.786149"
         inkscape:transform-center-y="22.81493"
         sodipodi:linespacing="125%"
         id="text4561"
         y="-43.116589"
         x="-0.17668717"
         style="font-size:8px;font-style:normal;font-variant:normal;font-weight:normal;font-stretch:normal;text-align:center;line-height:125%;letter-spacing:0px;word-spacing:0px;text-anchor:middle;fill:#ffffff;fill-opacity:1;stroke:none;font-family:Arial;-inkscape-font-specification:Arial"
         xml:space="preserve"
         transform="matrix(-0.5,0.8660254,-0.8660254,-0.5,0,0)"><tspan
           y="-43.116589"
           x="-0.17668717"
           id="tspan4563"
           sodipodi:role="line">12</tspan></text>
      <text
         transform="matrix(-0.8660254,0.5,-0.5,-0.8660254,0,0)"
         xml:space="preserve"
         style="font-size:8px;font-style:normal;font-variant:normal;font-weight:normal;font-stretch:normal;text-align:center;line-height:125%;letter-spacing:0px;word-spacing:0px;text-anchor:middle;fill:#ffffff;fill-opacity:1;stroke:none;font-family:Arial;-inkscape-font-specification:Arial"
         x="-0.22596352"
         y="-43.067314"
         id="text4565"
         sodipodi:linespacing="125%"
         inkscape:transform-center-y="39.651385"
         inkscape:transform-center-x="-23.048352"><tspan
           sodipodi:role="line"
           id="tspan4567"
           x="-0.22596352"
           y="-43.067314">15</tspan></text>
      <text
         inkscape:transform-center-x="-0.13476577"
         inkscape:transform-center-y="45.863281"
         sodipodi:linespacing="125%"
         id="text4569"
         y="-43"
         x="-0.24399991"
         style="font-size:8px;font-style:normal;font-variant:normal;font-weight:normal;font-stretch:normal;text-align:center;line-height:125%;letter-spacing:0px;word-spacing:0px;text-anchor:middle;fill:#ffffff;fill-opacity:1;stroke:none;font-family:Arial;-inkscape-font-specification:Arial"
         xml:space="preserve"
         transform="scale(-1,-1)"><tspan
           y="-43"
           x="-0.24399991"
           id="tspan4571"
           sodipodi:role="line">S</tspan></text>
      <text
         transform="matrix(-0.8660254,-0.5,0.5,-0.8660254,0,0)"
         xml:space="preserve"
         style="font-size:8px;font-style:normal;font-variant:normal;font-weight:normal;font-stretch:normal;text-align:center;line-height:125%;letter-spacing:0px;word-spacing:0px;text-anchor:middle;fill:#ffffff;fill-opacity:1;stroke:none;font-family:Arial;-inkscape-font-specification:Arial"
         x="-0.22596374"
         y="-42.932686"
         id="text4573"
         sodipodi:linespacing="125%"
         inkscape:transform-center-y="39.786148"
         inkscape:transform-center-x="22.814929"><tspan
           sodipodi:role="line"
           id="tspan4575"
           x="-0.22596374"
           y="-42.932686">21</tspan></text>
      <text
         inkscape:transform-center-x="39.651383"
         inkscape:transform-center-y="23.048351"
         sodipodi:linespacing="125%"
         id="text4577"
         y="-42.883411"
         x="-0.17668764"
         style="font-size:8px;font-style:normal;font-variant:normal;font-weight:normal;font-stretch:normal;text-align:center;line-height:125%;letter-spacing:0px;word-spacing:0px;text-anchor:middle;fill:#ffffff;fill-opacity:1;stroke:none;font-family:Arial;-inkscape-font-specification:Arial"
         xml:space="preserve"
         transform="matrix(-0.5,-0.8660254,0.8660254,-0.5,0,0)"><tspan
           y="-42.883411"
           x="-0.17668764"
           id="tspan4579"
           sodipodi:role="line">24</tspan></text>
      <text
         transform="matrix(0,-1,1,0,0,0)"
         xml:space="preserve"
         style="font-size:8px;font-style:normal;font-variant:normal;font-weight:normal;font-stretch:normal;text-align:center;line-height:125%;letter-spacing:0px;word-spacing:0px;text-anchor:middle;fill:#ffffff;fill-opacity:1;stroke:none;font-family:Arial;-inkscape-font-specification:Arial"
         x="-0.10937551"
         y="-42.865376"
         id="text4581"
         sodipodi:linespacing="125%"
         inkscape:transform-center-y="0.13476589"
         inkscape:transform-center-x="45.863281"><tspan
           sodipodi:role="line"
           id="tspan4583"
           x="-0.10937551"
           y="-42.865376">W</tspan></text>
      <text
         inkscape:transform-center-x="39.786149"
         inkscape:transform-center-y="-22.81493"
         sodipodi:linespacing="125%"
         id="text4585"
         y="-42.883411"
         x="-0.042063359"
         style="font-size:8px;font-style:normal;font-variant:normal;font-weight:normal;font-stretch:normal;text-align:center;line-height:125%;letter-spacing:0px;word-spacing:0px;text-anchor:middle;fill:#ffffff;fill-opacity:1;stroke:none;font-family:Arial;-inkscape-font-specification:Arial"
         xml:space="preserve"
         transform="matrix(0.5,-0.8660254,0.8660254,0.5,0,0)"><tspan
           y="-42.883411"
           x="-0.042063359"
           id="tspan4587"
           sodipodi:role="line">30</tspan></text>
      <text
         transform="matrix(0.8660254,-0.5,0.5,0.8660254,0,0)"
         xml:space="preserve"
         style="font-size:8px;font-style:normal;font-variant:normal;font-weight:normal;font-stretch:normal;text-align:center;line-height:125%;letter-spacing:0px;word-spacing:0px;text-anchor:middle;fill:#ffffff;fill-opacity:1;stroke:none;font-family:Arial;-inkscape-font-specification:Arial"
         x="0.0072127138"
         y="-42.932686"
         id="text4589"
         sodipodi:linespacing="125%"
         inkscape:transform-center-y="-39.651382"
         inkscape:transform-center-x="23.04835"><tspan
           sodipodi:role="line"
           id="tspan4591"
           x="0.0072127138"
           y="-42.932686">33</tspan></text>
    </g>
    <g
       id="fixed">
      <path
         sodipodi:type="arc"
         style="fill:#4d4d4d;fill-opacity:1;stroke:none"
         id="path3018"
         sodipodi:cx="660"
         sodipodi:cy="592.36218"
         sodipodi:rx="380"
         sodipodi:ry="380"
         d="m 1040,592.36218 a 380,380 0 1 1 -760,0 380,380 0 1 1 760,0 z"
         transform="matrix(0.09210526,0,0,0.09210526,-60.789473,-54.559673)" />
      <path
         id="path3085"
         d="m -15,-20 c -2.761424,0 -5,2.238576 -5,5 0,2.761424 2.238576,5 5,5 2.761424,0 5,-2.238576 5,-5 0,-2.761424 -2.238576,-5 -5,-5 z m 0,0.5 c 2.485281,0 4.5,2.014719 4.5,4.5 0,2.485281 -2.014719,4.5 -4.5,4.5 -2.485281,0 -4.5,-2.014719 -4.5,-4.5 0,-2.485281 2.014719,-4.5 4.5,-4.5 z"
         style="fill:#ff6600;fill-opacity:1;stroke:none"
         inkscape:connector-curvature="0" />
      <path
         inkscape:connector-curvature="0"
         style="fill:#ff6600;fill-opacity:1;stroke:none"
         d="m 15,-20 c -2.761424,0 -5,2.238576 -5,5 0,2.761424 2.238576,5 5,5 2.761424,0 5,-2.238576 5,-5 0,-2.761424 -2.238576,-5 -5,-5 z m 0,0.5 c 2.485281,0 4.5,2.014719 4.5,4.5 0,2.485281 -2.014719,4.5 -4.5,4.5 -2.485281,0 -4.5,-2.014719 -4.5,-4.5 0,-2.485281 2.014719,-4.5 4.5,-4.5 z"
         id="path3093" />
      <path
         id="path3095"
         d="m 15,10 c -2.761424,0 -5,2.238576 -5,5 0,2.761424 2.238576,5 5,5 2.761424,0 5,-2.238576 5,-5 0,-2.761424 -2.238576,-5 -5,-5 z m 0,0.5 c 2.485281,0 4.5,2.014719 4.5,4.5 0,2.485281 -2.014719,4.5 -4.5,4.5 -2.485281,0 -4.5,-2.014719 -4.5,-4.5 0,-2.485281 2.014719,-4.5 4.5,-4.5 z"
         style="fill:#ff6600;fill-opacity:1;stroke:none"
         inkscape:connector-curvature="0" />
      <path
         inkscape:connector-curvature="0"
         style="fill:#ff6600;fill-opacity:1;stroke:none"
         d="m -15,10 c -2.761424,0 -5,2.238576 -5,5 0,2.761424 2.238576,5 5,5 2.761424,0 5,-2.238576 5,-5 0,-2.761424 -2.238576,-5 -5,-5 z m 0,0.5 c 2.485281,0 4.5,2.014719 4.5,4.5 0,2.485281 -2.014719,4.5 -4.5,4.5 -2.485281,0 -4.5,-2.014719 -4.5,-4.5 0,-2.485281 2.014719,-4.5 4.5,-4.5 z"
         id="path3097" />
      <path
         inkscape:connector-curvature="0"
         id="path3099"
         d="M -11.558058,11.558058 11.558058,-11.558058"
         style="fill:none;stroke:#ff6600;stroke-width:0.49999997;stroke-linecap:butt;stroke-linejoin:miter;stroke-miterlimit:4;stroke-opacity:1;stroke-dasharray:none" />
      <path
         inkscape:connector-curvature="0"
         id="path3101"
         d="M -11.558058,-11.558058 11.558058,11.558058"
         style="fill:none;stroke:#ff6600;stroke-width:0.49999997;stroke-linecap:butt;stroke-linejoin:miter;stroke-miterlimit:4;stroke-opacity:1;stroke-dasharray:none" />
      <path
         inkscape:transform-center-y="-0.52004486"
         transform="matrix(-1.6169678e-4,0.96137262,0.83266641,1.8669043e-4,-49.964312,26.269061)"
         d="M -57.197225,63.122499 -59.901388,61.561249 -62.605551,60 l 2.704163,-1.56125 2.704164,-1.561249 0,3.122499 z"
         inkscape:randomized="0"
         inkscape:rounded="0"
         inkscape:flatsided="false"
         sodipodi:arg2="2.0943952"
         sodipodi:arg1="1.0471976"
         sodipodi:r2="1.8027756"
         sodipodi:r1="3.6055512"
         sodipodi:cy="60"
         sodipodi:cx="-59"
         sodipodi:sides="3"
         id="path3778"
         style="fill:none;stroke:#ff6600;stroke-width:0.55884141;stroke-miterlimit:4;stroke-opacity:1;stroke-dasharray:none"
         sodipodi:type="star" />
    </g>
  </g>
</svg>
