<?xml version="1.0" encoding="UTF-8" standalone="no"?>
<!-- Created with Inkscape (http://www.inkscape.org/) -->

<svg
   xmlns:dc="http://purl.org/dc/elements/1.1/"
   xmlns:cc="http://creativecommons.org/ns#"
   xmlns:rdf="http://www.w3.org/1999/02/22-rdf-syntax-ns#"
   xmlns:svg="http://www.w3.org/2000/svg"
   xmlns="http://www.w3.org/2000/svg"
   xmlns:sodipodi="http://sodipodi.sourceforge.net/DTD/sodipodi-0.dtd"
   xmlns:inkscape="http://www.inkscape.org/namespaces/inkscape"
   width="64"
   height="64"
   id="svg2985"
   version="1.1"
   inkscape:version="0.48.5 r10040"
   sodipodi:docname="logo.svg"
   viewBox="0 0 64 64">
  <defs
     id="defs2987" />
  <sodipodi:namedview
     id="base"
     pagecolor="#ffffff"
     bordercolor="#666666"
     borderopacity="1.0"
     inkscape:pageopacity="0.0"
     inkscape:pageshadow="2"
     inkscape:zoom="11"
     inkscape:cx="39.433014"
     inkscape:cy="29.099049"
     inkscape:current-layer="layer1"
     showgrid="true"
     inkscape:document-units="px"
     inkscape:grid-bbox="true"
     inkscape:window-width="1920"
     inkscape:window-height="1029"
     inkscape:window-x="0"
     inkscape:window-y="27"
     inkscape:window-maximized="1" />
  <metadata
     id="metadata2990">
    <rdf:RDF>
      <cc:Work
         rdf:about="">
        <dc:format>image/svg+xml</dc:format>
        <dc:type
           rdf:resource="http://purl.org/dc/dcmitype/StillImage" />
        <dc:title />
      </cc:Work>
    </rdf:RDF>
  </metadata>
  <g
     id="layer1"
     inkscape:label="Layer 1"
     inkscape:groupmode="layer">
    <path
       style="fill:#222222;fill-opacity:1;stroke:#222222;stroke-opacity:1"
       d="m 15.863636,5.6278409 c -5.595824,0 -10.144886,4.5490621 -10.144886,10.1448861 0,5.595824 4.549062,10.144886 10.144886,10.144886 5.595824,0 10.144886,-4.549062 10.144886,-10.144886 0,-5.595824 -4.549062,-10.1448861 -10.144886,-10.1448861 z m 0,1.7765239 c 4.619372,0 8.368362,3.7489902 8.368362,8.3683622 0,4.619372 -3.74899,8.368362 -8.368362,8.368362 -4.619372,0 -8.3683621,-3.74899 -8.3683621,-8.368362 0,-4.619372 3.7489901,-8.3683622 8.3683621,-8.3683622 z"
       id="path2993"
       inkscape:connector-curvature="0" />
    <path
       inkscape:connector-curvature="0"
       id="path3008"
       d="m 47.863636,5.6278409 c -5.595824,0 -10.144886,4.5490621 -10.144886,10.1448861 0,5.595824 4.549062,10.144886 10.144886,10.144886 5.595824,0 10.144886,-4.549062 10.144886,-10.144886 0,-5.595824 -4.549062,-10.1448861 -10.144886,-10.1448861 z m 0,1.7765239 c 4.619372,0 8.368362,3.7489902 8.368362,8.3683622 0,4.619372 -3.74899,8.368362 -8.368362,8.368362 -4.619372,0 -8.368362,-3.74899 -8.368362,-8.368362 0,-4.619372 3.74899,-8.3683622 8.368362,-8.3683622 z"
       style="fill:#222222;fill-opacity:1;stroke:#222222;stroke-opacity:1" />
    <path
       style="fill:#222222;fill-opacity:1;stroke:#222222;stroke-opacity:1"
       d="m 47.863636,37.627841 c -5.595824,0 -10.144886,4.549062 -10.144886,10.144886 0,5.595824 4.549062,10.144886 10.144886,10.144886 5.595824,0 10.144886,-4.549062 10.144886,-10.144886 0,-5.595824 -4.549062,-10.144886 -10.144886,-10.144886 z m 0,1.776524 c 4.619372,0 8.368362,3.74899 8.368362,8.368362 0,4.619372 -3.74899,8.368362 -8.368362,8.368362 -4.619372,0 -8.368362,-3.74899 -8.368362,-8.368362 0,-4.619372 3.74899,-8.368362 8.368362,-8.368362 z"
       id="path3010"
       inkscape:connector-curvature="0" />
    <path
       inkscape:connector-curvature="0"
       id="path3012"
       d="m 15.863636,37.627841 c -5.595824,0 -10.1448856,4.549062 -10.1448856,10.144886 0,5.595824 4.5490616,10.144886 10.1448856,10.144886 5.595824,0 10.144886,-4.549062 10.144886,-10.144886 0,-5.595824 -4.549062,-10.144886 -10.144886,-10.144886 z m 0,1.776524 c 4.619372,0 8.368362,3.74899 8.368362,8.368362 0,4.619372 -3.74899,8.368362 -8.368362,8.368362 -4.619372,0 -8.3683616,-3.74899 -8.3683616,-8.368362 0,-4.619372 3.7489896,-8.368362 8.3683616,-8.368362 z"
       style="fill:#222222;fill-opacity:1;stroke:#222222;stroke-opacity:1" />
    <path
       style="fill:#222222;stroke:#222222;stroke-width:1.79999994999999990;stroke-linecap:butt;stroke-linejoin:miter;stroke-miterlimit:4;stroke-opacity:1;stroke-dasharray:none;fill-opacity:1"
       d="M 22.454545,22.090909 41.363636,41"
       id="path3014"
       inkscape:connector-curvature="0" />
    <path
       style="fill:#222222;stroke:#222222;stroke-width:1.79999994999999990;stroke-linecap:butt;stroke-linejoin:miter;stroke-miterlimit:4;stroke-opacity:1;stroke-dasharray:none;fill-opacity:1"
       d="m 22.090909,41.090909 19,-19"
       id="path3016"
       inkscape:connector-curvature="0" />
  </g>
</svg>
